<svg width="1440" height="788" viewBox="0 0 1440 788" fill="none" xmlns="http://www.w3.org/2000/svg">
<path d="M13.996 540.043L-274.09 706.37C-325.393 735.989 -390.95 718.423 -420.57 667.12C-450.189 615.818 -432.623 550.261 -381.321 520.641L-93.2342 354.315C-41.9317 324.695 23.6252 342.261 53.2447 393.563C82.8642 444.866 65.2985 510.423 13.996 540.043Z" stroke="#25CBD3" stroke-width="0.3"/>
<path d="M990.532 -23.7658L274.76 389.485C223.458 419.105 157.9 401.539 128.281 350.236C98.6613 298.934 116.228 233.376 167.53 203.757L883.302 -209.494C934.604 -239.114 1000.16 -221.548 1029.78 -170.245C1059.18 -118.817 1041.83 -53.385 990.532 -23.7658Z" stroke="#25CBD3" stroke-width="0.3"/>
<path d="M935.776 403.522L220.004 816.773C168.702 846.392 103.145 828.826 73.5255 777.524C43.9059 726.221 61.4719 660.664 112.774 631.045L828.546 217.794C879.849 188.174 945.406 205.74 975.025 257.043C1004.43 308.47 986.862 374.027 935.776 403.522Z" stroke="#25CBD3" stroke-width="0.3"/>
<path d="M1473.44 486.749L757.672 900C706.37 929.619 640.813 912.053 611.193 860.751C581.573 809.448 599.139 743.891 650.442 714.272L1366.21 301.021C1417.52 271.401 1483.07 288.967 1512.69 340.269C1542.31 391.572 1524.75 457.129 1473.44 486.749Z" stroke="#25CBD3" stroke-width="0.3"/>
<path d="M245.649 16.6821L-164.912 253.719C-216.214 283.339 -281.771 265.773 -311.391 214.471C-341.01 163.168 -323.444 97.6108 -272.142 67.9912L138.419 -169.046C189.721 -198.666 255.279 -181.1 284.898 -129.797C314.518 -78.4945 296.952 -12.9374 245.649 16.6821Z" stroke="#25CBD3" stroke-width="0.3"/>
<path d="M1294.3 196.526L1206.51 247.212C1155.21 276.832 1089.65 259.266 1060.03 207.963C1030.41 156.661 1047.98 91.1039 1099.28 61.4843L1187.07 10.7978C1238.37 -18.8217 1303.93 -1.256 1333.55 50.0465C1363.17 101.349 1345.6 166.906 1294.3 196.526Z" stroke="#25CBD3" stroke-width="0.3"/>
<path d="M1502.77 863.478L1375.96 936.692C1324.66 966.311 1259.1 948.745 1229.48 897.443C1199.86 846.14 1217.43 780.583 1268.73 750.963L1395.54 677.75C1446.84 648.13 1512.4 665.696 1542.02 716.998C1571.42 768.427 1554.07 833.859 1502.77 863.478Z" stroke="#25CBD3" stroke-width="0.3"/>
</svg>
