<svg width="24" height="24" viewBox="0 0 24 24" fill="none" xmlns="http://www.w3.org/2000/svg">
<path d="M6 3.75C6 3.15326 6.23705 2.58097 6.65901 2.15901C7.08097 1.73705 7.65326 1.5 8.25 1.5H15.75C16.3467 1.5 16.919 1.73705 17.341 2.15901C17.7629 2.58097 18 3.15326 18 3.75V4.5C17.9999 5.16515 17.7789 5.81143 17.3716 6.33734C16.9644 6.86324 16.394 7.23896 15.75 7.4055V9.75C16.3448 9.75 16.8765 10.008 17.3048 10.3327C17.7375 10.6612 18.1185 11.0962 18.4313 11.5522C19.038 12.4372 19.5 13.5697 19.5 14.4375C19.5 14.8996 19.3449 15.3483 19.0594 15.7117C18.7739 16.0751 18.3747 16.3321 17.9257 16.4415L18.9067 21.285C19.1257 22.395 18.12 23.133 17.553 21.285L15.96 16.5H15.726L15.6585 19.4865C15.6263 20.6362 14.6888 20.487 14.646 19.4865L14.3475 16.5H9.6525L9.354 19.4865C9.3105 20.487 8.37375 20.6362 8.3415 19.4865L8.274 16.5H8.03925L6.44625 21.285C5.87925 23.133 4.8735 22.395 5.0925 21.285L6.0735 16.4415C5.62473 16.3318 5.22575 16.0747 4.94046 15.7114C4.65516 15.3481 4.50006 14.8995 4.5 14.4375C4.5 13.5705 4.962 12.4372 5.56875 11.5522C5.8815 11.0962 6.2625 10.6612 6.69525 10.3327C7.1235 10.008 7.65525 9.75 8.25 9.75V7.4055C7.60603 7.23896 7.03563 6.86324 6.62837 6.33734C6.22112 5.81143 6.00009 5.16515 6 4.5V3.75ZM8.25 11.25C8.09475 11.25 7.8765 11.3197 7.602 11.5282C7.33125 11.7337 7.056 12.0367 6.80625 12.4005C6.288 13.1565 6 13.992 6 14.4375C6 14.748 6.252 15 6.5625 15H17.4375C17.5867 15 17.7298 14.9407 17.8352 14.8352C17.9407 14.7298 18 14.5867 18 14.4375C18 13.992 17.712 13.1565 17.1937 12.4005C16.944 12.0367 16.6687 11.733 16.3988 11.5282C16.1235 11.3197 15.9052 11.25 15.75 11.25H8.25ZM14.25 9.75V7.5H9.75V9.75H14.25ZM16.5 4.5V3.75C16.5 3.55109 16.421 3.36032 16.2803 3.21967C16.1397 3.07902 15.9489 3 15.75 3H8.25C8.05109 3 7.86032 3.07902 7.71967 3.21967C7.57902 3.36032 7.5 3.55109 7.5 3.75V4.5C7.5 4.89782 7.65804 5.27936 7.93934 5.56066C8.22064 5.84196 8.60218 6 9 6H15C15.3978 6 15.7794 5.84196 16.0607 5.56066C16.342 5.27936 16.5 4.89782 16.5 4.5Z" fill="#4D4C4D" stroke="#4D4C4D" stroke-width="0.5"/>
</svg>
