<svg width="16" height="16" viewBox="0 0 16 16" fill="none" xmlns="http://www.w3.org/2000/svg">
<g clip-path="url(#clip0_214_4311)">
<path d="M13.7942 3.5858L13.7943 3.58594C13.8753 3.66509 13.9397 3.75963 13.9836 3.864C14.0275 3.96834 14.0502 4.0804 14.0502 4.1936C14.0502 4.19363 14.0502 4.19366 14.0502 4.19369V11.2C14.0502 11.4254 13.9606 11.6416 13.8012 11.801C13.6418 11.9604 13.4256 12.05 13.2002 12.05H6.8002C6.57476 12.05 6.35856 11.9604 6.19916 11.801C6.03975 11.6416 5.9502 11.4254 5.9502 11.2V1.6C5.9502 1.37457 6.03975 1.15837 6.19915 0.998959C6.35856 0.839553 6.57476 0.75 6.8002 0.75H10.5481C10.5481 0.75 10.5482 0.75 10.5482 0.75C10.7702 0.750052 10.9834 0.836983 11.1422 0.992201C11.1422 0.992217 11.1422 0.992234 11.1423 0.99225L13.7942 3.5858Z" stroke="#7C7786" stroke-width="1.5" stroke-linecap="round" stroke-linejoin="round"/>
<mask id="path-2-inside-1_214_4311" fill="white">
<path d="M11.6 12.8V14.4C11.6 14.8243 11.4314 15.2313 11.1314 15.5314C10.8313 15.8314 10.4243 16 10 16H3.6C3.17565 16 2.76869 15.8314 2.46863 15.5314C2.16857 15.2313 2 14.8243 2 14.4V5.6C2 5.17565 2.16857 4.76869 2.46863 4.46863C2.76869 4.16857 3.17565 4 3.6 4H5.2"/>
</mask>
<path d="M13.1 12.8C13.1 11.9716 12.4284 11.3 11.6 11.3C10.7716 11.3 10.1 11.9716 10.1 12.8H13.1ZM2 14.4H0.5H2ZM3.6 4V2.5V4ZM5.2 5.5C6.02843 5.5 6.7 4.82843 6.7 4C6.7 3.17157 6.02843 2.5 5.2 2.5V5.5ZM10.1 12.8V14.4H13.1V12.8H10.1ZM10.1 14.4C10.1 14.4265 10.0895 14.452 10.0707 14.4707L12.192 16.592C12.7734 16.0107 13.1 15.2222 13.1 14.4H10.1ZM10.0707 14.4707C10.052 14.4895 10.0265 14.5 10 14.5V17.5C10.8222 17.5 11.6107 17.1734 12.192 16.592L10.0707 14.4707ZM10 14.5H3.6V17.5H10V14.5ZM3.6 14.5C3.57348 14.5 3.54804 14.4895 3.52929 14.4707L1.40797 16.592C1.98933 17.1734 2.77783 17.5 3.6 17.5V14.5ZM3.52929 14.4707C3.51054 14.452 3.5 14.4265 3.5 14.4H0.5C0.5 15.2222 0.826606 16.0107 1.40797 16.592L3.52929 14.4707ZM3.5 14.4V5.6H0.5V14.4H3.5ZM3.5 5.6C3.5 5.57348 3.51054 5.54804 3.52929 5.52929L1.40797 3.40797C0.826606 3.98933 0.5 4.77783 0.5 5.6H3.5ZM3.52929 5.52929C3.54804 5.51054 3.57348 5.5 3.6 5.5V2.5C2.77783 2.5 1.98933 2.82661 1.40797 3.40797L3.52929 5.52929ZM3.6 5.5H5.2V2.5H3.6V5.5Z" fill="#7C7786" mask="url(#path-2-inside-1_214_4311)"/>
</g>
<defs>
<clipPath id="clip0_214_4311">
<rect width="16" height="16" fill="white"/>
</clipPath>
</defs>
</svg>
