<svg width="24" height="24" viewBox="0 0 24 24" fill="none" xmlns="http://www.w3.org/2000/svg">
<path d="M21 9.46992V5.25C20.9993 4.65347 20.762 4.08157 20.3402 3.65976C19.9184 3.23795 19.3465 3.00068 18.75 3H5.25C4.65347 3.00068 4.08157 3.23795 3.65976 3.65976C3.23795 4.08157 3.00068 4.65347 3 5.25V9.46992C2.35643 9.63704 1.78646 10.0129 1.37931 10.5385C0.97217 11.0642 0.750848 11.7101 0.75 12.375V17.625C0.750447 18.0227 0.908625 18.404 1.18983 18.6852C1.47104 18.9664 1.85231 19.1246 2.25 19.125H3V21.375H4.5V19.125H19.5V21.375H21V19.125H21.75C22.1477 19.1246 22.529 18.9664 22.8102 18.6852C23.0914 18.404 23.2496 18.0227 23.25 17.625V12.375C23.2492 11.7101 23.0278 11.0642 22.6207 10.5385C22.2135 10.0129 21.6436 9.63704 21 9.46992ZM5.25 17.625H2.25V12.375C2.25 11.9772 2.40804 11.5956 2.68934 11.3143C2.97064 11.033 3.35218 10.875 3.75 10.875C4.14782 10.875 4.52936 11.033 4.81066 11.3143C5.09196 11.5956 5.25 11.9772 5.25 12.375V17.625ZM17.25 17.625H6.75V13.125H17.25V17.625ZM17.3449 11.625H6.65508C6.52004 11.1066 6.24913 10.6335 5.8703 10.2547C5.49147 9.87587 5.01844 9.60496 4.5 9.46992V5.25C4.50024 5.05116 4.57933 4.86053 4.71993 4.71993C4.86053 4.57933 5.05116 4.50024 5.25 4.5H18.75C18.9488 4.50024 19.1395 4.57933 19.2801 4.71993C19.4207 4.86053 19.4998 5.05116 19.5 5.25V9.46992C18.9816 9.60496 18.5085 9.87587 18.1297 10.2547C17.7509 10.6335 17.48 11.1066 17.3449 11.625ZM21.75 17.625H18.75V12.375C18.75 11.9772 18.908 11.5956 19.1893 11.3143C19.4706 11.033 19.8522 10.875 20.25 10.875C20.6478 10.875 21.0294 11.033 21.3107 11.3143C21.592 11.5956 21.75 11.9772 21.75 12.375L21.7509 17.625H21.75Z" fill="#4D4C4D" stroke="#4D4C4D" stroke-width="0.5"/>
</svg>
