<svg width="16" height="16" viewBox="0 0 16 16" fill="none" xmlns="http://www.w3.org/2000/svg">
<g clip-path="url(#clip0_214_3838)">
<path d="M7.45673 0.00240002L7.53673 0.016L14.3367 1.616C14.4547 1.64361 14.5616 1.70631 14.6433 1.79585C14.725 1.88538 14.7776 1.99756 14.7943 2.1176L14.7999 2.2V13.8C14.8 13.9212 14.7633 14.0396 14.6948 14.1396C14.6262 14.2395 14.529 14.3164 14.4159 14.36L14.3375 14.384L7.53753 15.984C7.45617 16.0032 7.3717 16.0051 7.28954 15.9898C7.20738 15.9744 7.12934 15.942 7.06042 15.8947C6.99151 15.8474 6.93323 15.7862 6.88934 15.7151C6.84544 15.6439 6.8169 15.5644 6.80553 15.4816L6.79993 15.4V0.600001C6.79983 0.444543 6.86007 0.295115 6.96796 0.183194C7.07585 0.0712728 7.22297 0.00559643 7.37833 0L7.45673 0.00240002ZM7.99993 1.3576V14.6424L13.5999 13.3248V2.6752L7.99993 1.3576ZM5.99993 1.6V2.8H3.19992V13.2H5.99993V14.4H2.59992C2.45493 14.4 2.31485 14.3475 2.20558 14.2522C2.09631 14.1569 2.02524 14.0253 2.00552 13.8816L1.99992 13.8V2.2C1.99993 2.05501 2.05244 1.91493 2.14774 1.80566C2.24304 1.69639 2.37468 1.62532 2.51832 1.6056L2.59992 1.6H5.99993ZM9.99993 7.20001C10.2121 7.20001 10.4156 7.28429 10.5656 7.43432C10.7156 7.58435 10.7999 7.78783 10.7999 8.00001C10.7999 8.21218 10.7156 8.41566 10.5656 8.56569C10.4156 8.71572 10.2121 8.80001 9.99993 8.80001C9.78776 8.80001 9.58427 8.71572 9.43424 8.56569C9.28421 8.41566 9.19993 8.21218 9.19993 8.00001C9.19993 7.78783 9.28421 7.58435 9.43424 7.43432C9.58427 7.28429 9.78776 7.20001 9.99993 7.20001Z" fill="#7C7786" stroke="#7C7786" stroke-width="0.25"/>
</g>
<defs>
<clipPath id="clip0_214_3838">
<rect width="16" height="16" fill="white"/>
</clipPath>
</defs>
</svg>
