<svg width="27" height="32" viewBox="0 0 27 32" fill="none" xmlns="http://www.w3.org/2000/svg">
<path d="M11.9134 0.00480004L12.0734 0.032L25.6734 3.232C25.9095 3.28722 26.1232 3.41262 26.2866 3.5917C26.45 3.77077 26.5553 3.99512 26.5886 4.2352L26.5998 4.4V27.6C26.5999 27.8424 26.5266 28.0792 26.3895 28.2791C26.2524 28.479 26.058 28.6328 25.8318 28.72L25.675 28.768L12.075 31.968C11.9123 32.0064 11.7434 32.0103 11.5791 31.9795C11.4147 31.9487 11.2587 31.884 11.1208 31.7894C10.983 31.6948 10.8664 31.5724 10.7786 31.4302C10.6909 31.2879 10.6338 31.1288 10.611 30.9632L10.5998 30.8V1.2C10.5996 0.889086 10.7201 0.59023 10.9359 0.366388C11.1517 0.142546 11.4459 0.0111929 11.7566 0L11.9134 0.00480004ZM12.9998 2.7152V29.2848L24.1998 26.6496V5.3504L12.9998 2.7152ZM8.99982 3.2V5.6H3.39982V26.4H8.99982V28.8H2.19982C1.90984 28.8 1.62967 28.695 1.41113 28.5044C1.19259 28.3138 1.05045 28.0505 1.01102 27.7632L0.999817 27.6V4.4C0.999829 4.11002 1.10485 3.82986 1.29544 3.61131C1.48604 3.39277 1.74933 3.25064 2.03662 3.2112L2.19982 3.2H8.99982ZM16.9998 14.4C17.4242 14.4 17.8311 14.5686 18.1312 14.8686C18.4313 15.1687 18.5998 15.5757 18.5998 16C18.5998 16.4244 18.4313 16.8313 18.1312 17.1314C17.8311 17.4314 17.4242 17.6 16.9998 17.6C16.5755 17.6 16.1685 17.4314 15.8685 17.1314C15.5684 16.8313 15.3998 16.4244 15.3998 16C15.3998 15.5757 15.5684 15.1687 15.8685 14.8686C16.1685 14.5686 16.5755 14.4 16.9998 14.4Z" fill="#25CBD3" stroke="#25CBD3" stroke-width="0.5"/>
</svg>
