<svg width="24" height="24" viewBox="0 0 24 24" fill="none" xmlns="http://www.w3.org/2000/svg">
<path d="M16 19.9999H19C19.5304 19.9999 20.0391 19.7892 20.4142 19.4142C20.7893 19.0391 21 18.5304 21 17.9999V12.9999M16 19.9999H5C4.46957 19.9999 3.96086 19.7892 3.58579 19.4142C3.21071 19.0391 3 18.5304 3 17.9999V14.9999M16 19.9999C15.442 18.8839 13.57 17.0209 9.872 15.9119M21 12.9999V7.99994C21 7.46951 20.7893 6.9608 20.4142 6.58573C20.0391 6.21066 19.5304 5.99994 19 5.99994H16M21 12.9999C17.924 12.8819 12.665 13.4349 9.872 15.9119M3 14.9999V7.99994C3 7.46951 3.21071 6.9608 3.58579 6.58573C3.96086 6.21066 4.46957 5.99994 5 5.99994H8M3 14.9999C5.776 14.9999 8.047 15.3639 9.872 15.9119M8 5.99994L10.586 3.41394C10.9611 3.039 11.4697 2.82837 12 2.82837C12.5303 2.82837 13.0389 3.039 13.414 3.41394L16 5.99994M8 5.99994H16M7.5 8.99994C7 8.99994 6 9.29994 6 10.4999C6 11.6999 7 11.9999 7.5 11.9999C8 11.9999 9 11.6999 9 10.4999C9 9.29994 8 8.99994 7.5 8.99994Z" stroke="#4D4C4D" stroke-width="2" stroke-linecap="round" stroke-linejoin="round"/>
</svg>
