<svg width="246" height="55" viewBox="0 0 246 55" fill="none" xmlns="http://www.w3.org/2000/svg">
<path d="M0.681152 8.69535H18.9082V3.69189H0.681152V8.69535ZM32.4397 50.4507H38.0389L26.4236 5.12143H20.884L32.4397 50.4507ZM42.0023 53.965H70.0572V48.8424H42.0023V53.965ZM87.2396 54.2031L91.3498 50.0935C85.0954 45.1494 80.5687 37.8228 80.5687 27.4584C80.5687 17.0941 85.0954 9.82714 91.3498 4.82361L87.2396 0.713623C80.2109 5.95539 74.5524 14.9497 74.5524 27.4584C74.5524 39.9672 80.2109 48.9616 87.2396 54.2031ZM119.532 2.67929L114.945 4.22795C116.435 7.3254 119.83 16.558 120.782 19.9532L125.429 18.345C124.416 15.0093 120.842 5.53844 119.532 2.67929ZM145.979 6.49145L140.499 4.94279C139.308 13.8776 135.674 23.408 130.968 29.4241C124.952 37.0485 116.077 42.7668 107.559 45.2685L111.669 49.4381C120.068 46.4598 128.884 40.3246 135.018 32.2237C139.903 25.7907 143.119 17.2728 144.906 9.88666C145.145 8.93365 145.561 7.50405 145.979 6.49145ZM102.913 6.25321L98.2072 7.98059C99.6371 10.5419 103.747 20.6084 104.879 24.3015L109.584 22.5741C108.214 18.7023 104.462 9.58884 102.913 6.25321ZM156.998 54.2031C164.087 48.9616 169.686 39.9672 169.686 27.4584C169.686 14.9497 164.087 5.95539 156.998 0.713623L152.888 4.82361C159.202 9.82714 163.67 17.0941 163.67 27.4584C163.67 37.8228 159.202 45.1494 152.888 50.0935L156.998 54.2031ZM174.161 53.965H202.216V48.8424H174.161V53.965ZM206.293 50.4507H211.893L223.27 5.12143H217.79L206.293 50.4507ZM227.653 8.69535H245.88V3.69189H227.653V8.69535Z" fill="#7C7786"/>
</svg>
