<svg width="27" height="32" viewBox="0 0 27 32" fill="none" xmlns="http://www.w3.org/2000/svg">
<path d="M11.9136 0.00480004L12.0736 0.032L25.6736 3.232C25.9096 3.28722 26.1234 3.41262 26.2868 3.5917C26.4501 3.77077 26.5554 3.99512 26.5888 4.2352L26.6 4.4V27.6C26.6001 27.8424 26.5268 28.0792 26.3897 28.2791C26.2526 28.479 26.0582 28.6328 25.832 28.72L25.6752 28.768L12.0752 31.968C11.9125 32.0064 11.7436 32.0103 11.5792 31.9795C11.4149 31.9487 11.2588 31.884 11.121 31.7894C10.9832 31.6948 10.8666 31.5724 10.7788 31.4302C10.691 31.2879 10.6339 31.1288 10.6112 30.9632L10.6 30.8V1.2C10.5998 0.889086 10.7203 0.59023 10.9361 0.366388C11.1519 0.142546 11.4461 0.0111929 11.7568 0L11.9136 0.00480004ZM13 2.7152V29.2848L24.2 26.6496V5.3504L13 2.7152ZM9.00001 3.2V5.6H3.4V26.4H9.00001V28.8H2.2C1.91002 28.8 1.62985 28.695 1.41131 28.5044C1.19277 28.3138 1.05064 28.0505 1.0112 27.7632L1 27.6V4.4C1.00001 4.11002 1.10503 3.82986 1.29563 3.61131C1.48623 3.39277 1.74951 3.25064 2.0368 3.2112L2.2 3.2H9.00001ZM17 14.4C17.4244 14.4 17.8313 14.5686 18.1314 14.8686C18.4314 15.1687 18.6 15.5757 18.6 16C18.6 16.4244 18.4314 16.8313 18.1314 17.1314C17.8313 17.4314 17.4244 17.6 17 17.6C16.5757 17.6 16.1687 17.4314 15.8686 17.1314C15.5686 16.8313 15.4 16.4244 15.4 16C15.4 15.5757 15.5686 15.1687 15.8686 14.8686C16.1687 14.5686 16.5757 14.4 17 14.4Z" fill="#4D4C4D" stroke="#4D4C4D" stroke-width="0.5"/>
</svg>
