<svg width="560" height="99" viewBox="0 0 560 99" fill="none" xmlns="http://www.w3.org/2000/svg">
<path d="M483.779 87.2908C483.879 93.3003 488.903 97.9999 494.753 97.9999H549.024C554.873 97.9999 559.923 93.3003 559.998 87.2908C560.098 81.2043 555.298 76.2222 549.399 76.2222H494.353C488.454 76.2222 483.679 81.1787 483.779 87.2908Z" fill="#5E49FF"/>
<path d="M473.069 76.2206C479.078 76.1206 483.778 71.096 483.778 65.2465L483.778 10.9756C483.778 5.12608 479.078 0.0764763 473.069 0.00147962C466.982 -0.098511 462 4.70113 462 10.6007L462 65.6464C462 71.546 466.956 76.3206 473.069 76.2206Z" fill="#25CBD3"/>
<path d="M514.086 59.4965L507.798 65.7841C504.119 69.4635 498.157 69.4635 494.478 65.7841C490.798 62.1047 490.798 56.1431 494.478 52.4637L500.765 46.1761C504.445 42.4966 510.406 42.4966 514.086 46.176C517.765 49.8555 517.765 55.8171 514.086 59.4965Z" fill="#3BD42D"/>
<path d="M38.5316 27V50.0998C34.8893 47.0326 30.2885 45.4031 24.8251 45.4031C10.1601 45.4031 0 56.7134 0 71.8577C0 87.0019 10.5435 98.3122 25.2085 98.3122C31.247 98.3122 36.1353 96.2994 39.7776 92.7529V97.0662H54.5385V27H38.5316ZM27.5089 84.2223C20.7035 84.2223 15.9111 79.0464 15.9111 71.8577C15.9111 64.6689 20.7994 59.3972 27.5089 59.3972C34.5059 59.3972 39.2025 64.4772 39.2025 71.8577C39.2025 79.1423 34.5059 84.2223 27.5089 84.2223Z" fill="#333333"/>
<path d="M73.9578 76.5543H110.572C110.764 75.2124 110.956 73.2954 110.956 70.8033C110.956 58.3429 101.179 45.3073 84.693 45.3073C70.1238 45.3073 58.4301 57.2885 58.4301 71.8577C58.4301 86.9061 68.9736 98.3122 85.6515 98.3122C98.2078 98.3122 104.534 93.2322 108.56 87.9604L96.5783 80.0049C94.5655 83.3596 91.7858 85.2766 86.1307 85.2766C80.0922 85.2766 75.5872 82.2094 73.9578 76.5543ZM73.7661 66.5859C75.108 60.4516 79.2295 57.2885 85.0764 57.2885C90.9232 57.2885 94.7572 60.835 96.0991 66.5859H73.7661Z" fill="#333333"/>
<path d="M146.064 46.5533L135.233 81.3468L124.498 46.5533H108.012L125.936 97.0662H144.627L162.551 46.5533H146.064Z" fill="#333333"/>
<path d="M199.637 46.5533V51.8251C196.091 48.2786 191.298 46.3616 185.068 46.3616C170.403 46.3616 159.859 56.7134 159.859 71.8577C159.859 87.0019 170.403 98.3122 185.068 98.3122C191.298 98.3122 196.091 96.2035 199.637 92.4654V97.0662H214.398V46.5533H199.637ZM187.368 84.2223C180.563 84.2223 175.77 79.0464 175.77 71.8577C175.77 64.6689 180.659 59.3972 187.368 59.3972C194.365 59.3972 199.062 64.4772 199.062 71.8577C199.062 79.1423 194.365 84.2223 187.368 84.2223Z" fill="#333333"/>
<path d="M280.496 45.3073C272.732 45.3073 267.365 47.9911 264.393 51.9209C261.614 47.6077 256.917 45.3073 249.632 45.3073C243.594 45.3073 238.801 47.5118 235.638 50.6749V46.5533H220.59V96.9703H236.597V67.4486C236.597 63.7104 238.993 59.4931 244.552 59.4931C249.728 59.4931 252.124 63.8063 252.124 68.5988V96.9703H268.131V67.4486C268.131 63.8063 270.528 59.4931 276.087 59.4931C281.263 59.4931 283.659 63.8063 283.659 68.5988V96.9703H299.666V65.5316C299.666 54.5089 293.244 45.3073 280.496 45.3073Z" fill="#333333"/>
<path d="M318.742 76.5543H355.356C355.548 75.2124 355.74 73.2954 355.74 70.8033C355.74 58.3429 345.963 45.3073 329.477 45.3073C314.908 45.3073 303.214 57.2885 303.214 71.8577C303.214 86.9061 313.757 98.3122 330.435 98.3122C342.991 98.3122 349.318 93.2322 353.343 87.9604L341.362 80.0049C339.349 83.3596 336.57 85.2766 330.914 85.2766C324.876 85.2766 320.371 82.2094 318.742 76.5543ZM318.55 66.5859C319.892 60.4516 324.013 57.2885 329.86 57.2885C335.707 57.2885 339.541 60.835 340.883 66.5859H318.55Z" fill="#333333"/>
<path d="M372.87 76.5543H409.485C409.677 75.2124 409.868 73.2954 409.868 70.8033C409.868 58.3429 400.092 45.3073 383.606 45.3073C369.036 45.3073 357.343 57.2885 357.343 71.8577C357.343 86.9061 367.886 98.3122 384.564 98.3122C397.12 98.3122 403.446 93.2322 407.472 87.9604L395.491 80.0049C393.478 83.3596 390.698 85.2766 385.043 85.2766C379.005 85.2766 374.5 82.2094 372.87 76.5543ZM372.679 66.5859C374.021 60.4516 378.142 57.2885 383.989 57.2885C389.836 57.2885 393.67 60.835 395.012 66.5859H372.679Z" fill="#333333"/>
<path d="M437.374 97.0662H446V83.1679H440.728C436.223 83.1679 433.635 80.58 433.635 75.6917V60.164H445.712V46.5533H434.21V33.1344H418.683V40.8982C418.683 44.6363 416.862 46.5533 413.315 46.5533H409.29V60.164H417.724V77.6087C417.724 89.3023 424.338 97.0662 437.374 97.0662Z" fill="#333333"/>
</svg>
