<svg width="20" height="20" viewBox="0 0 20 20" fill="none" xmlns="http://www.w3.org/2000/svg">
<path d="M10 7C10 5.4087 9.36786 3.88258 8.24264 2.75736C7.11742 1.63214 5.5913 1 4 1H1V3C1 4.5913 1.63214 6.11742 2.75736 7.24264C3.88258 8.36786 5.4087 9 7 9H10M10 9C10 7.4087 10.6321 5.88258 11.7574 4.75736C12.8826 3.63214 14.4087 3 16 3H19V4C19 5.5913 18.3679 7.11742 17.2426 8.24264C16.1174 9.36786 14.5913 10 13 10H10M10 13V7M5 13H15V17C15 17.5304 14.7893 18.0391 14.4142 18.4142C14.0391 18.7893 13.5304 19 13 19H7C6.46957 19 5.96086 18.7893 5.58579 18.4142C5.21071 18.0391 5 17.5304 5 17V13Z" stroke="#4D4C4D" stroke-width="2" stroke-linecap="round" stroke-linejoin="round"/>
</svg>
