<svg width="120" height="120" viewBox="0 0 120 120" fill="none" xmlns="http://www.w3.org/2000/svg">
<path d="M53.3677 3.76688L53.9302 3.8625L101.743 15.1125C102.572 15.3066 103.324 15.7475 103.898 16.3771C104.473 17.0066 104.843 17.7953 104.96 18.6394L105 19.2188V100.781C105 101.634 104.742 102.466 104.26 103.169C103.778 103.872 103.095 104.412 102.3 104.719L101.748 104.888L53.9358 116.138C53.3637 116.272 52.7698 116.286 52.1921 116.178C51.6144 116.07 51.0657 115.842 50.5812 115.51C50.0966 115.177 49.6868 114.747 49.3782 114.247C49.0696 113.746 48.8689 113.187 48.7889 112.605L48.7495 112.031V7.96875C48.7488 6.87569 49.1724 5.82503 49.931 5.03808C50.6896 4.25114 51.7241 3.78935 52.8164 3.75L53.3677 3.76688ZM57.187 13.2956V106.704L96.5621 97.4401V22.56L57.187 13.2956ZM43.1245 15V23.4375H23.437V96.5626H43.1245V105H19.2183C18.1988 105 17.2138 104.631 16.4455 103.961C15.6772 103.291 15.1775 102.365 15.0389 101.355L14.9995 100.781V19.2188C14.9996 18.1993 15.3688 17.2143 16.0388 16.446C16.7089 15.6777 17.6345 15.178 18.6445 15.0394L19.2183 15H43.1245ZM71.2496 54.375C72.7414 54.375 74.1721 54.9677 75.227 56.0226C76.2819 57.0775 76.8746 58.5082 76.8746 60C76.8746 61.4919 76.2819 62.9226 75.227 63.9775C74.1721 65.0324 72.7414 65.6251 71.2496 65.6251C69.7577 65.6251 68.327 65.0324 67.2721 63.9775C66.2172 62.9226 65.6246 61.4919 65.6246 60C65.6246 58.5082 66.2172 57.0775 67.2721 56.0226C68.327 54.9677 69.7577 54.375 71.2496 54.375Z" fill="white"/>
</svg>
