<svg width="24" height="24" viewBox="0 0 24 24" fill="none" xmlns="http://www.w3.org/2000/svg">
<g clip-path="url(#clip0_1_6550)">
<path d="M23 20.1C23 19.8613 22.9172 19.6324 22.7699 19.4636C22.6225 19.2948 22.4227 19.2 22.2143 19.2L20.6429 19.2L20.6429 15.6L22.2143 15.6C22.4227 15.6 22.6225 15.5052 22.7699 15.3364C22.9172 15.1676 23 14.9387 23 14.7C23 14.4613 22.9172 14.2324 22.7699 14.0636C22.6225 13.8948 22.4227 13.8 22.2143 13.8L20.6429 13.8L20.6429 10.2L22.2143 10.2C22.4227 10.2 22.6225 10.1052 22.7699 9.9364C22.9172 9.76761 23 9.5387 23 9.3C23 9.06131 22.9172 8.83239 22.7699 8.6636C22.6225 8.49482 22.4227 8.4 22.2143 8.4L20.6429 8.4L20.6429 4.8L22.2143 4.8C22.4227 4.8 22.6225 4.70518 22.7699 4.5364C22.9172 4.36761 23 4.1387 23 3.9C23 3.66131 22.9172 3.43239 22.7699 3.2636C22.6225 3.09482 22.4227 3 22.2143 3L1.78572 3C1.57733 3 1.37748 3.09482 1.23013 3.2636C1.08278 3.43239 1 3.6613 1 3.9C1 4.13869 1.08278 4.36761 1.23013 4.5364C1.37748 4.70518 1.57733 4.8 1.78572 4.8L3.35714 4.8L3.35714 8.4L1.78571 8.4C1.57733 8.4 1.37748 8.49482 1.23013 8.6636C1.08278 8.83239 1 9.06131 1 9.3C1 9.53869 1.08278 9.76761 1.23013 9.9364C1.37748 10.1052 1.57733 10.2 1.78571 10.2L3.35714 10.2L3.35714 13.8L1.78571 13.8C1.57733 13.8 1.37748 13.8948 1.23013 14.0636C1.08278 14.2324 0.999999 14.4613 0.999999 14.7C0.999999 14.9387 1.08278 15.1676 1.23013 15.3364C1.37748 15.5052 1.57733 15.6 1.78571 15.6L3.35714 15.6L3.35714 19.2L1.78571 19.2C1.57733 19.2 1.37748 19.2948 1.23013 19.4636C1.08278 19.6324 0.999999 19.8613 0.999999 20.1C0.999999 20.3387 1.08278 20.5676 1.23013 20.7364C1.37748 20.9052 1.57733 21 1.78571 21L22.2143 21C22.4227 21 22.6225 20.9052 22.7699 20.7364C22.9172 20.5676 23 20.3387 23 20.1ZM19.0714 4.8L19.0714 19.2L4.92857 19.2L4.92857 4.8L19.0714 4.8ZM7.28571 12C7.28708 12.1559 7.32293 12.3089 7.38992 12.4447C7.4569 12.5804 7.55283 12.6945 7.66875 12.7762L11.5973 15.4763C11.7191 15.5595 11.8582 15.6034 12 15.6034C12.1418 15.6034 12.2809 15.5595 12.4027 15.4763L16.3312 12.7762C16.447 12.6947 16.5426 12.5805 16.609 12.4447C16.6753 12.3088 16.7101 12.1557 16.7101 12C16.7101 11.8443 16.6753 11.6912 16.609 11.5553C16.5426 11.4195 16.447 11.3053 16.3312 11.2238L12.4027 8.52375C12.2809 8.44052 12.1418 8.39657 12 8.39657C11.8582 8.39657 11.7191 8.44052 11.5973 8.52375L7.66875 11.2238C7.55283 11.3055 7.4569 11.4196 7.38992 11.5553C7.32293 11.6911 7.28708 11.8441 7.28571 12ZM14.4062 12L12 13.6537L9.59375 12L12 10.3463L14.4062 12Z" fill="#4D4C4D" stroke="#4D4C4D" stroke-width="0.5"/>
</g>
<defs>
<clipPath id="clip0_1_6550">
<rect width="24" height="24" fill="white" transform="translate(24) rotate(90)"/>
</clipPath>
</defs>
</svg>
