<svg width="24" height="24" viewBox="0 0 24 24" fill="none" xmlns="http://www.w3.org/2000/svg">
<path d="M3.54722 8.5067H20.4528L19.5166 5.20268H4.51089L3.54722 8.5067ZM6.43823 12.9121H17.5618L17.2864 10.7094H6.7411L6.43823 12.9121ZM4.42829 20.6214C4.09789 20.6214 3.82696 20.4977 3.6155 20.2503C3.40478 20.0021 3.31777 19.7128 3.35448 19.3824L4.53842 10.7094H2.08794C1.72083 10.7094 1.43191 10.5625 1.22119 10.2688C1.00973 9.97515 0.949889 9.65393 1.04167 9.30517L2.61108 3.79847C2.6845 3.55985 2.81299 3.36711 2.99655 3.22027C3.1801 3.07342 3.40037 3 3.65735 3H20.3427C20.5996 3 20.8199 3.07342 21.0035 3.22027C21.187 3.36711 21.3155 3.55985 21.3889 3.79847L22.9583 9.30517C23.0501 9.65393 22.9903 9.97515 22.7788 10.2688C22.5681 10.5625 22.2792 10.7094 21.9121 10.7094H19.4891L20.6455 19.3824C20.6822 19.7128 20.5952 20.0021 20.3845 20.2503C20.173 20.4977 19.9021 20.6214 19.5717 20.6214C19.2964 20.6214 19.0534 20.5341 18.8426 20.3593C18.6312 20.1853 18.5071 19.9606 18.4704 19.6853L17.8646 15.1147H6.13536L5.52963 19.6853C5.49292 19.9606 5.36883 20.1853 5.15737 20.3593C4.94665 20.5341 4.70362 20.6214 4.42829 20.6214Z" fill="#4D4C4D"/>
</svg>
